<svg width="576" height="857" viewBox="0 0 576 857" fill="none" xmlns="http://www.w3.org/2000/svg">
<mask id="path-1-inside-1_1016_442" fill="white">
<path fill-rule="evenodd" clip-rule="evenodd" d="M556.183 628.199H17.4492V700.615H17.4523C17.5037 740.377 43.8026 780.13 96.349 810.468C201.545 871.203 372.101 871.203 477.296 810.468C529.894 780.101 556.193 740.3 556.193 700.498H556.183V628.199Z"/>
</mask>
<path fill-rule="evenodd" clip-rule="evenodd" d="M556.183 628.199H17.4492V700.615H17.4523C17.5037 740.377 43.8026 780.13 96.349 810.468C201.545 871.203 372.101 871.203 477.296 810.468C529.894 780.101 556.193 740.3 556.193 700.498H556.183V628.199Z" fill="#DCE8E6"/>
<path d="M17.4492 628.199V627.156H16.4059V628.199H17.4492ZM556.183 628.199H557.226V627.156H556.183V628.199ZM17.4492 700.615H16.4059V701.658H17.4492V700.615ZM17.4523 700.615L18.4955 700.613L18.4942 699.572H17.4523V700.615ZM96.349 810.468L95.8273 811.372L95.8273 811.372L96.349 810.468ZM477.296 810.468L476.775 809.565L476.775 809.565L477.296 810.468ZM556.193 700.498L557.236 700.498L557.236 699.455H556.193V700.498ZM556.183 700.498H555.14V701.542H556.183V700.498ZM17.4492 629.242H556.183V627.156H17.4492V629.242ZM18.4925 700.615V628.199H16.4059V700.615H18.4925ZM17.4523 699.572H17.4492V701.658H17.4523V699.572ZM16.409 700.616C16.461 740.882 43.091 780.924 95.8273 811.372L96.8706 809.565C44.5141 779.336 18.5463 739.872 18.4955 700.613L16.409 700.616ZM95.8273 811.372C148.621 841.852 217.75 857.062 286.823 857.062C355.895 857.062 425.024 841.852 477.818 811.372L476.775 809.565C424.373 839.819 355.626 854.976 286.823 854.976C218.019 854.976 149.273 839.819 96.8706 809.565L95.8273 811.372ZM477.818 811.372C530.606 780.895 557.236 740.804 557.236 700.498L555.15 700.498C555.15 739.795 529.182 779.307 476.775 809.565L477.818 811.372ZM556.193 699.455H556.183V701.542H556.193V699.455ZM555.14 628.199V700.498H557.226V628.199H555.14Z" fill="#2C3242" mask="url(#path-1-inside-1_1016_442)"/>
<mask id="mask0_1016_442" style="mask-type:alpha" maskUnits="userSpaceOnUse" x="78" y="691" width="451" height="189">
<path d="M528.389 781.237V691.888C375.036 782.545 272.794 795.928 111.572 741.34L78.7266 827.678C121.582 849.575 236.761 889.99 354.63 876.477C472.499 862.963 513.687 809.391 528.389 781.237Z" fill="black"/>
</mask>
<g mask="url(#mask0_1016_442)">
<mask id="path-4-inside-2_1016_442" fill="white">
<path fill-rule="evenodd" clip-rule="evenodd" d="M555.589 661.5C551.393 697.756 525.295 733.325 477.295 761.037C372.1 821.772 201.544 821.772 96.3479 761.037C48.3485 733.325 22.2506 697.756 18.0542 661.5C13.0538 704.703 39.1517 748.88 96.3479 781.903C201.544 842.637 372.1 842.637 477.295 781.903C534.492 748.88 560.59 704.703 555.589 661.5Z"/>
</mask>
<path fill-rule="evenodd" clip-rule="evenodd" d="M555.589 661.5C551.393 697.756 525.295 733.325 477.295 761.037C372.1 821.772 201.544 821.772 96.3479 761.037C48.3485 733.325 22.2506 697.756 18.0542 661.5C13.0538 704.703 39.1517 748.88 96.3479 781.903C201.544 842.637 372.1 842.637 477.295 781.903C534.492 748.88 560.59 704.703 555.589 661.5Z" fill="#DEBF1A"/>
<path d="M555.589 661.5L556.625 661.38L554.553 661.38L555.589 661.5ZM477.295 761.037L477.817 761.941L477.817 761.941L477.295 761.037ZM96.3479 761.037L96.8696 760.134L96.8696 760.134L96.3479 761.037ZM18.0542 661.5L19.0906 661.38L17.0178 661.38L18.0542 661.5ZM96.3479 781.903L96.8696 780.999L96.8696 780.999L96.3479 781.903ZM477.295 781.903L477.817 782.806L477.817 782.806L477.295 781.903ZM554.553 661.38C550.407 697.199 524.598 732.522 476.774 760.134L477.817 761.941C525.991 734.127 552.378 698.313 556.625 661.62L554.553 661.38ZM476.774 760.134C424.372 790.388 355.625 805.545 286.822 805.545C218.018 805.545 149.272 790.388 96.8696 760.134L95.8263 761.941C148.62 792.421 217.749 807.632 286.822 807.632C355.894 807.632 425.023 792.421 477.817 761.941L476.774 760.134ZM96.8696 760.134C49.0449 732.522 23.2363 697.199 19.0906 661.38L17.0178 661.62C21.2648 698.313 47.6521 734.127 95.8263 761.941L96.8696 760.134ZM96.8696 780.999C39.88 748.096 14.1555 704.258 19.0906 661.62L17.0178 661.38C11.9521 705.147 38.4234 749.665 95.8263 782.806L96.8696 780.999ZM476.774 780.999C424.372 811.253 355.625 826.41 286.822 826.41C218.018 826.41 149.272 811.253 96.8696 780.999L95.8263 782.806C148.62 813.287 217.749 828.497 286.822 828.497C355.894 828.497 425.023 813.287 477.817 782.806L476.774 780.999ZM554.553 661.62C559.488 704.258 533.763 748.096 476.774 780.999L477.817 782.806C535.22 749.665 561.691 705.147 556.625 661.38L554.553 661.62Z" fill="#2C3242" mask="url(#path-4-inside-2_1016_442)"/>
<mask id="path-6-inside-3_1016_442" fill="white">
<path fill-rule="evenodd" clip-rule="evenodd" d="M556.096 674.021C554.321 712.42 528.055 750.511 477.295 779.817C372.1 840.552 201.544 840.552 96.3479 779.817C45.5886 750.511 19.3218 712.42 17.5476 674.021C15.6448 715.201 41.9116 756.735 96.3479 788.164C201.544 848.898 372.1 848.898 477.295 788.164C531.732 756.735 557.998 715.201 556.096 674.021Z"/>
</mask>
<path fill-rule="evenodd" clip-rule="evenodd" d="M556.096 674.021C554.321 712.42 528.055 750.511 477.295 779.817C372.1 840.552 201.544 840.552 96.3479 779.817C45.5886 750.511 19.3218 712.42 17.5476 674.021C15.6448 715.201 41.9116 756.735 96.3479 788.164C201.544 848.898 372.1 848.898 477.295 788.164C531.732 756.735 557.998 715.201 556.096 674.021Z" fill="#F8FAFA"/>
<path d="M556.096 674.021L557.138 673.972L555.054 673.972L556.096 674.021ZM477.295 779.817L477.817 780.721L477.817 780.721L477.295 779.817ZM96.3479 779.817L95.8263 780.721L96.3479 779.817ZM17.5476 674.021L18.5897 673.972L16.5054 673.972L17.5476 674.021ZM96.3479 788.164L95.8263 789.067L95.8263 789.067L96.3479 788.164ZM477.295 788.164L476.774 787.26L476.774 787.26L477.295 788.164ZM555.054 673.972C553.301 711.893 527.349 749.714 476.774 778.914L477.817 780.721C528.76 751.309 555.342 712.946 557.138 674.069L555.054 673.972ZM476.774 778.914C424.372 809.168 355.625 824.325 286.822 824.325C218.018 824.325 149.272 809.168 96.8696 778.914L95.8263 780.721C148.62 811.201 217.749 826.412 286.822 826.412C355.894 826.412 425.023 811.201 477.817 780.721L476.774 778.914ZM96.8696 778.914C46.2941 749.714 20.3419 711.893 18.5897 673.972L16.5054 674.069C18.3017 712.946 44.8831 751.309 95.8263 780.721L96.8696 778.914ZM96.8696 787.26C42.6297 755.945 16.7114 714.72 18.5897 674.069L16.5054 673.972C14.5782 715.682 41.1935 757.525 95.8263 789.067L96.8696 787.26ZM476.774 787.26C424.372 817.514 355.625 832.672 286.822 832.672C218.018 832.672 149.272 817.514 96.8696 787.26L95.8263 789.067C148.62 819.548 217.749 834.758 286.822 834.758C355.894 834.758 425.023 819.548 477.817 789.067L476.774 787.26ZM555.054 674.069C556.932 714.72 531.014 755.945 476.774 787.26L477.817 789.067C532.45 757.525 559.065 715.682 557.138 673.972L555.054 674.069Z" fill="#2C3242" mask="url(#path-6-inside-3_1016_442)"/>
<path d="M527.494 721.949V747.001" stroke="#2C3242" stroke-width="1.04328"/>
</g>
<circle cx="219.94" cy="219.94" r="219.418" transform="matrix(0.866025 -0.5 0.866025 0.5 -94.125 628.114)" fill="#F8FAFA" stroke="#2C3242" stroke-width="1.04328"/>
<circle cx="199.203" cy="199.203" r="198.681" transform="matrix(0.866025 -0.5 0.866025 0.5 -58.209 623.94)" fill="#2C3242" stroke="#2C3242" stroke-width="1.04328"/>
<circle cx="186.785" cy="186.785" r="186.264" transform="matrix(0.866025 -0.5 0.866025 0.5 -36.6992 633.149)" fill="#F8FAFA" stroke="#2C3242" stroke-width="1.04328"/>
<circle cx="113.772" cy="113.772" r="113.25" transform="matrix(0.866025 -0.5 0.866025 0.5 89.7637 625.532)" fill="#2C3242" stroke="#2C3242" stroke-width="1.04328"/>
<mask id="path-13-inside-4_1016_442" fill="white">
<path fill-rule="evenodd" clip-rule="evenodd" d="M422.997 515.326H150.641V624.086H150.643C150.67 644.187 163.965 664.283 190.529 679.619C243.71 710.324 329.935 710.324 383.116 679.619C409.706 664.267 423.002 644.146 423.002 624.025H422.997V515.326Z"/>
</mask>
<path fill-rule="evenodd" clip-rule="evenodd" d="M422.997 515.326H150.641V624.086H150.643C150.67 644.187 163.965 664.283 190.529 679.619C243.71 710.324 329.935 710.324 383.116 679.619C409.706 664.267 423.002 644.146 423.002 624.025H422.997V515.326Z" fill="#DCE8E6"/>
<path d="M150.641 515.326V514.283H149.597V515.326H150.641ZM422.997 515.326H424.04V514.283H422.997V515.326ZM150.641 624.086H149.597V625.129H150.641V624.086ZM150.643 624.086L151.686 624.084L151.685 623.043H150.643V624.086ZM190.529 679.619L190.007 680.523L190.007 680.523L190.529 679.619ZM383.116 679.619L383.638 680.523L383.638 680.523L383.116 679.619ZM423.002 624.025L424.045 624.025L424.045 622.982H423.002V624.025ZM422.997 624.025H421.953V625.069H422.997V624.025ZM150.641 516.369H422.997V514.283H150.641V516.369ZM151.684 624.086V515.326H149.597V624.086H151.684ZM150.643 623.043H150.641V625.129H150.643V623.043ZM149.599 624.087C149.627 644.691 163.254 665.077 190.007 680.523L191.05 678.716C164.677 663.489 151.712 643.682 151.686 624.084L149.599 624.087ZM190.007 680.523C216.794 695.988 251.836 703.691 286.822 703.691C321.808 703.691 356.851 695.988 383.638 680.523L382.594 678.716C356.2 693.955 321.539 701.604 286.822 701.604C252.106 701.604 217.445 693.955 191.05 678.716L190.007 680.523ZM383.638 680.523C410.418 665.061 424.045 644.65 424.045 624.025L421.959 624.025C421.958 643.642 408.995 663.474 382.594 678.716L383.638 680.523ZM423.002 622.982H422.997V625.069H423.002V622.982ZM421.953 515.326V624.025H424.04V515.326H421.953Z" fill="#2C3242" mask="url(#path-13-inside-4_1016_442)"/>
<circle cx="111.19" cy="111.19" r="110.956" transform="matrix(0.866025 -0.5 0.866025 0.5 94.2344 503.971)" fill="#F8FAFA" stroke="#2C3242" stroke-width="0.469157"/>
<mask id="path-16-inside-5_1016_442" fill="white">
<path fill-rule="evenodd" clip-rule="evenodd" d="M318.826 366.359C302.24 356.783 275.349 356.783 258.763 366.359L161.839 422.318H70.3517V484.737H70.3625C70.1095 491.197 74.2524 497.704 82.7911 502.634L258.994 604.365C275.58 613.94 302.471 613.94 319.057 604.365L495.029 502.767C503.627 497.803 507.768 491.241 507.452 484.737H507.645V422.318H415.75L318.826 366.359Z"/>
</mask>
<path fill-rule="evenodd" clip-rule="evenodd" d="M318.826 366.359C302.24 356.783 275.349 356.783 258.763 366.359L161.839 422.318H70.3517V484.737H70.3625C70.1095 491.197 74.2524 497.704 82.7911 502.634L258.994 604.365C275.58 613.94 302.471 613.94 319.057 604.365L495.029 502.767C503.627 497.803 507.768 491.241 507.452 484.737H507.645V422.318H415.75L318.826 366.359Z" fill="#DCE8E6"/>
<path d="M258.763 366.359L258.241 365.455L258.241 365.455L258.763 366.359ZM318.826 366.359L319.348 365.455L319.348 365.455L318.826 366.359ZM161.839 422.318V423.361H162.119L162.361 423.221L161.839 422.318ZM70.3517 422.318V421.274H69.3084V422.318H70.3517ZM70.3517 484.737H69.3084V485.78H70.3517V484.737ZM70.3625 484.737L71.405 484.778L71.4474 483.694H70.3625V484.737ZM82.7911 502.634L83.3127 501.73L83.3127 501.73L82.7911 502.634ZM258.994 604.365L258.473 605.268L258.473 605.268L258.994 604.365ZM319.057 604.365L319.579 605.268L319.579 605.268L319.057 604.365ZM495.029 502.767L495.551 503.671L495.551 503.671L495.029 502.767ZM507.452 484.737V483.694H506.357L506.41 484.788L507.452 484.737ZM507.645 484.737V485.78H508.688V484.737H507.645ZM507.645 422.318H508.688V421.274H507.645V422.318ZM415.75 422.318L415.228 423.221L415.47 423.361H415.75V422.318ZM259.285 367.262C267.382 362.587 278.06 360.22 288.795 360.22C299.529 360.22 310.207 362.587 318.305 367.262L319.348 365.455C310.859 360.554 299.798 358.133 288.795 358.133C277.791 358.133 266.73 360.554 258.241 365.455L259.285 367.262ZM162.361 423.221L259.285 367.262L258.241 365.455L161.318 421.414L162.361 423.221ZM70.3517 423.361H161.839V421.274H70.3517V423.361ZM71.395 484.737V422.318H69.3084V484.737H71.395ZM70.3625 483.694H70.3517V485.78H70.3625V483.694ZM83.3127 501.73C74.9695 496.913 71.1726 490.712 71.405 484.778L69.32 484.696C69.0464 491.682 73.5352 498.494 82.2694 503.537L83.3127 501.73ZM259.516 603.461L83.3127 501.73L82.2694 503.537L258.473 605.268L259.516 603.461ZM318.536 603.461C310.439 608.136 299.761 610.503 289.026 610.503C278.291 610.503 267.613 608.136 259.516 603.461L258.473 605.268C266.961 610.169 278.022 612.59 289.026 612.59C300.03 612.59 311.09 610.169 319.579 605.268L318.536 603.461ZM494.508 501.864L318.536 603.461L319.579 605.268L495.551 503.671L494.508 501.864ZM506.41 484.788C506.7 490.761 502.908 497.014 494.508 501.864L495.551 503.671C504.345 498.593 508.835 491.721 508.494 484.687L506.41 484.788ZM507.645 483.694H507.452V485.78H507.645V483.694ZM506.601 422.318V484.737H508.688V422.318H506.601ZM415.75 423.361H507.645V421.274H415.75V423.361ZM318.305 367.262L415.228 423.221L416.271 421.414L319.348 365.455L318.305 367.262Z" fill="#2C3242" mask="url(#path-16-inside-5_1016_442)"/>
<mask id="path-18-inside-6_1016_442" fill="white">
<path fill-rule="evenodd" clip-rule="evenodd" d="M88.832 469.609L93.9777 472.58L93.9777 490.945L88.832 487.975L88.832 469.609ZM97.7197 474.741L102.865 477.712L102.865 496.077L97.7197 493.106L97.7197 474.741ZM111.753 482.844L106.607 479.873L106.607 498.238L111.753 501.209L111.753 482.844ZM115.495 485.004L120.641 487.975L120.641 506.34L115.495 503.37L115.495 485.004ZM129.528 493.106L124.383 490.135L124.383 508.5L129.528 511.471L129.528 493.106Z"/>
</mask>
<path fill-rule="evenodd" clip-rule="evenodd" d="M88.832 469.609L93.9777 472.58L93.9777 490.945L88.832 487.975L88.832 469.609ZM97.7197 474.741L102.865 477.712L102.865 496.077L97.7197 493.106L97.7197 474.741ZM111.753 482.844L106.607 479.873L106.607 498.238L111.753 501.209L111.753 482.844ZM115.495 485.004L120.641 487.975L120.641 506.34L115.495 503.37L115.495 485.004ZM129.528 493.106L124.383 490.135L124.383 508.5L129.528 511.471L129.528 493.106Z" fill="#DEBF1A"/>
<path d="M93.9777 472.58L94.4878 472.875L94.4878 472.286L93.9777 471.991L93.9777 472.58ZM88.832 469.609L88.832 469.02L88.3219 468.726L88.3219 469.315L88.832 469.609ZM93.9777 490.945L93.9777 491.534L94.4878 491.829L94.4878 491.24L93.9777 490.945ZM88.832 487.975L88.3219 487.68L88.3219 488.269L88.832 488.564L88.832 487.975ZM102.865 477.712L103.375 478.006L103.375 477.417L102.865 477.123L102.865 477.712ZM97.7197 474.741L97.7197 474.152L97.2096 473.857L97.2096 474.446L97.7197 474.741ZM102.865 496.077L102.865 496.666L103.375 496.961L103.375 496.372L102.865 496.077ZM97.7197 493.106L97.2096 492.812L97.2096 493.401L97.7197 493.695L97.7197 493.106ZM106.607 479.873L106.607 479.284L106.097 478.989L106.097 479.578L106.607 479.873ZM111.753 482.844L112.263 483.138L112.263 482.549L111.753 482.254L111.753 482.844ZM106.607 498.238L106.097 497.943L106.097 498.532L106.607 498.827L106.607 498.238ZM111.753 501.209L111.753 501.798L112.263 502.092L112.263 501.503L111.753 501.209ZM120.641 487.975L121.151 488.27L121.151 487.681L120.641 487.386L120.641 487.975ZM115.495 485.004L115.495 484.415L114.985 484.121L114.985 484.71L115.495 485.004ZM120.641 506.34L120.641 506.929L121.151 507.224L121.151 506.635L120.641 506.34ZM115.495 503.37L114.985 503.075L114.985 503.664L115.495 503.959L115.495 503.37ZM124.383 490.135L124.383 489.546L123.873 489.251L123.873 489.84L124.383 490.135ZM129.528 493.106L130.039 493.4L130.039 492.811L129.528 492.517L129.528 493.106ZM124.383 508.5L123.873 508.205L123.873 508.795L124.383 509.089L124.383 508.5ZM129.528 511.471L129.528 512.06L130.039 512.354L130.039 511.765L129.528 511.471ZM93.9777 471.991L88.832 469.02L88.832 470.198L93.9777 473.169L93.9777 471.991ZM94.4878 491.24L94.4878 472.875L93.4675 472.286L93.4675 490.651L94.4878 491.24ZM88.832 488.564L93.9777 491.534L93.9777 490.356L88.832 487.386L88.832 488.564ZM88.3219 469.315L88.3219 487.68L89.3422 488.269L89.3422 469.904L88.3219 469.315ZM102.865 477.123L97.7197 474.152L97.7197 475.33L102.865 478.301L102.865 477.123ZM103.375 496.372L103.375 478.006L102.355 477.417L102.355 495.783L103.375 496.372ZM97.7197 493.695L102.865 496.666L102.865 495.488L97.7197 492.517L97.7197 493.695ZM97.2096 474.446L97.2096 492.812L98.2299 493.401L98.2299 475.036L97.2096 474.446ZM106.607 480.462L111.753 483.433L111.753 482.254L106.607 479.284L106.607 480.462ZM107.118 498.532L107.118 480.167L106.097 479.578L106.097 497.943L107.118 498.532ZM111.753 500.62L106.607 497.649L106.607 498.827L111.753 501.798L111.753 500.62ZM111.243 482.549L111.243 500.914L112.263 501.503L112.263 483.138L111.243 482.549ZM120.641 487.386L115.495 484.415L115.495 485.593L120.641 488.564L120.641 487.386ZM121.151 506.635L121.151 488.27L120.131 487.681L120.131 506.046L121.151 506.635ZM115.495 503.959L120.641 506.929L120.641 505.751L115.495 502.78L115.495 503.959ZM114.985 484.71L114.985 503.075L116.005 503.664L116.005 485.299L114.985 484.71ZM124.383 490.724L129.528 493.695L129.528 492.517L124.383 489.546L124.383 490.724ZM124.893 508.795L124.893 490.429L123.873 489.84L123.873 508.205L124.893 508.795ZM129.528 510.882L124.383 507.911L124.383 509.089L129.528 512.06L129.528 510.882ZM129.018 492.811L129.018 511.176L130.039 511.765L130.039 493.4L129.018 492.811Z" fill="#2C3242" mask="url(#path-18-inside-6_1016_442)"/>
<mask id="path-20-inside-7_1016_442" fill="white">
<path fill-rule="evenodd" clip-rule="evenodd" d="M341.454 552.201L346.6 549.23L346.6 567.595L341.454 570.566L341.454 552.201ZM323.679 562.464L328.824 559.493L328.824 577.858L323.679 580.829L323.679 562.464ZM314.791 567.597L319.937 564.626L319.937 582.991L314.791 585.962L314.791 567.597ZM337.712 554.363L332.566 557.334L332.566 575.699L337.712 572.728L337.712 554.363ZM355.487 544.099L350.342 547.07L350.342 565.436L355.487 562.465L355.487 544.099Z"/>
</mask>
<path fill-rule="evenodd" clip-rule="evenodd" d="M341.454 552.201L346.6 549.23L346.6 567.595L341.454 570.566L341.454 552.201ZM323.679 562.464L328.824 559.493L328.824 577.858L323.679 580.829L323.679 562.464ZM314.791 567.597L319.937 564.626L319.937 582.991L314.791 585.962L314.791 567.597ZM337.712 554.363L332.566 557.334L332.566 575.699L337.712 572.728L337.712 554.363ZM355.487 544.099L350.342 547.07L350.342 565.436L355.487 562.465L355.487 544.099Z" fill="#DEBF1A"/>
<path d="M346.6 549.23L347.11 548.935L347.11 548.346L346.6 548.641L346.6 549.23ZM341.454 552.201L341.454 551.612L340.944 551.906L340.944 552.495L341.454 552.201ZM346.6 567.595L346.6 568.184L347.11 567.89L347.11 567.301L346.6 567.595ZM341.454 570.566L340.944 570.861L340.944 571.45L341.454 571.155L341.454 570.566ZM328.824 559.493L329.334 559.199L329.334 558.61L328.824 558.904L328.824 559.493ZM323.679 562.464L323.679 561.875L323.169 562.17L323.169 562.759L323.679 562.464ZM328.824 577.858L328.824 578.448L329.334 578.153L329.334 577.564L328.824 577.858ZM323.679 580.829L323.169 581.124L323.169 581.713L323.679 581.418L323.679 580.829ZM319.937 564.626L320.447 564.332L320.447 563.742L319.937 564.037L319.937 564.626ZM314.791 567.597L314.791 567.008L314.281 567.302L314.281 567.891L314.791 567.597ZM319.937 582.991L319.937 583.58L320.447 583.286L320.447 582.697L319.937 582.991ZM314.791 585.962L314.281 586.257L314.281 586.846L314.791 586.551L314.791 585.962ZM332.566 557.334L332.566 556.745L332.056 557.039L332.056 557.628L332.566 557.334ZM337.712 554.363L338.222 554.068L338.222 553.479L337.712 553.774L337.712 554.363ZM332.566 575.699L332.056 575.993L332.056 576.582L332.566 576.288L332.566 575.699ZM337.712 572.728L337.712 573.317L338.222 573.022L338.222 572.433L337.712 572.728ZM350.342 547.07L350.342 546.481L349.832 546.776L349.832 547.365L350.342 547.07ZM355.487 544.099L355.998 543.805L355.998 543.216L355.487 543.51L355.487 544.099ZM350.342 565.436L349.832 565.73L349.832 566.319L350.342 566.025L350.342 565.436ZM355.487 562.465L355.487 563.054L355.998 562.759L355.998 562.17L355.487 562.465ZM346.6 548.641L341.454 551.612L341.454 552.79L346.6 549.819L346.6 548.641ZM347.11 567.301L347.11 548.935L346.09 549.525L346.09 567.89L347.11 567.301ZM341.454 571.155L346.6 568.184L346.6 567.006L341.454 569.977L341.454 571.155ZM340.944 552.495L340.944 570.861L341.964 570.271L341.964 551.906L340.944 552.495ZM328.824 558.904L323.679 561.875L323.679 563.053L328.824 560.082L328.824 558.904ZM329.334 577.564L329.334 559.199L328.314 559.788L328.314 578.153L329.334 577.564ZM323.679 581.418L328.824 578.448L328.824 577.269L323.679 580.24L323.679 581.418ZM323.169 562.759L323.169 581.124L324.189 580.535L324.189 562.17L323.169 562.759ZM319.937 564.037L314.791 567.008L314.791 568.186L319.937 565.215L319.937 564.037ZM320.447 582.697L320.447 564.332L319.427 564.921L319.427 583.286L320.447 582.697ZM314.791 586.551L319.937 583.58L319.937 582.402L314.791 585.373L314.791 586.551ZM314.281 567.891L314.281 586.257L315.301 585.668L315.301 567.302L314.281 567.891ZM332.566 557.923L337.712 554.952L337.712 553.774L332.566 556.745L332.566 557.923ZM333.077 575.404L333.077 557.039L332.056 557.628L332.056 575.993L333.077 575.404ZM337.712 572.139L332.566 575.11L332.566 576.288L337.712 573.317L337.712 572.139ZM337.202 554.657L337.202 573.022L338.222 572.433L338.222 554.068L337.202 554.657ZM350.342 547.659L355.487 544.689L355.487 543.51L350.342 546.481L350.342 547.659ZM350.852 565.141L350.852 546.776L349.832 547.365L349.832 565.73L350.852 565.141ZM355.487 561.876L350.342 564.846L350.342 566.025L355.487 563.054L355.487 561.876ZM354.977 544.394L354.977 562.759L355.998 562.17L355.998 543.805L354.977 544.394Z" fill="#2C3242" mask="url(#path-20-inside-7_1016_442)"/>
<rect x="-3.10921e-08" y="0.521639" width="271.774" height="271.507" rx="34.1559" transform="matrix(0.866025 0.5 -0.866025 0.5 289.245 286.862)" fill="#F8FAFA" stroke="#2C3242" stroke-width="1.04328"/>
<path d="M288.963 548.328V610.925" stroke="#2C3242" stroke-width="1.04328"/>
<mask id="path-24-inside-8_1016_442" fill="white">
<path fill-rule="evenodd" clip-rule="evenodd" d="M453.757 218.661H119.908V410.624H119.94C120.2 415.214 123.364 419.759 129.432 423.263L263.961 500.933C276.641 508.254 297.2 508.254 309.88 500.933L444.232 423.365C450.345 419.836 453.511 415.249 453.73 410.624H453.757V218.661Z"/>
</mask>
<path fill-rule="evenodd" clip-rule="evenodd" d="M453.757 218.661H119.908V410.624H119.94C120.2 415.214 123.364 419.759 129.432 423.263L263.961 500.933C276.641 508.254 297.2 508.254 309.88 500.933L444.232 423.365C450.345 419.836 453.511 415.249 453.73 410.624H453.757V218.661Z" fill="#DCE8E6"/>
<path d="M119.908 218.661V217.864H119.111V218.661H119.908ZM453.757 218.661H454.555V217.864H453.757V218.661ZM119.908 410.624H119.111V411.422H119.908V410.624ZM119.94 410.624L120.736 410.579L120.693 409.827H119.94V410.624ZM129.432 423.263L129.831 422.572L129.831 422.572L129.432 423.263ZM263.961 500.933L263.562 501.624L263.562 501.624L263.961 500.933ZM309.88 500.933L310.279 501.624L310.279 501.624L309.88 500.933ZM444.232 423.365L444.631 424.056L444.631 424.056L444.232 423.365ZM453.73 410.624V409.827H452.969L452.933 410.587L453.73 410.624ZM453.757 410.624V411.422H454.555V410.624H453.757ZM119.908 219.459H453.757V217.864H119.908V219.459ZM120.706 410.624V218.661H119.111V410.624H120.706ZM119.94 409.827H119.908V411.422H119.94V409.827ZM129.831 422.572C123.902 419.149 120.976 414.808 120.736 410.579L119.143 410.669C119.424 415.62 122.826 420.37 129.033 423.954L129.831 422.572ZM264.36 500.242L129.831 422.572L129.033 423.954L263.562 501.624L264.36 500.242ZM309.481 500.242C303.291 503.816 295.127 505.626 286.92 505.626C278.714 505.626 270.55 503.816 264.36 500.242L263.562 501.624C270.052 505.371 278.508 507.221 286.92 507.221C295.333 507.221 303.789 505.371 310.279 501.624L309.481 500.242ZM443.833 422.674L309.481 500.242L310.279 501.624L444.631 424.056L443.833 422.674ZM452.933 410.587C452.732 414.846 449.806 419.226 443.833 422.674L444.631 424.056C450.885 420.445 454.291 415.651 454.527 410.662L452.933 410.587ZM453.757 409.827H453.73V411.422H453.757V409.827ZM452.959 218.661V410.624H454.555V218.661H452.959Z" fill="#2C3242" mask="url(#path-24-inside-8_1016_442)"/>
<rect x="-3.10921e-08" y="0.521639" width="207.299" height="207.095" rx="25.9898" transform="matrix(0.866025 0.5 -0.866025 0.5 287.186 114.499)" fill="#F8FAFA" stroke="#2C3242" stroke-width="1.04328"/>
<path d="M287.92 314.643L287.92 506.606" stroke="#2C3242" stroke-width="1.04328"/>
<rect width="28.6325" height="32.4961" rx="6.25967" transform="matrix(0.866025 0.5 0.0797455 0.996815 115.615 474.537)" fill="black"/>
<path d="M157.753 530.843L155.882 507.453L160.539 510.142L160.773 513.066L160.931 513.157C161.075 512.747 161.304 512.404 161.619 512.131C161.942 511.852 162.364 511.719 162.887 511.73C163.418 511.746 164.076 511.981 164.861 512.434C165.893 513.03 166.879 513.9 167.82 515.043C168.761 516.177 169.556 517.546 170.206 519.151C170.865 520.761 171.274 522.566 171.434 524.566C171.588 526.495 171.453 527.956 171.028 528.95C170.602 529.944 169.966 530.506 169.118 530.636C168.28 530.772 167.313 530.524 166.22 529.892C165.479 529.465 164.824 528.951 164.254 528.351C163.685 527.751 163.196 527.115 162.789 526.445C162.391 525.779 162.074 525.126 161.838 524.487L161.732 524.425L162.463 533.562L157.753 530.843ZM164.255 524.735C164.837 525.071 165.312 525.166 165.678 525.019C166.054 524.878 166.316 524.526 166.465 523.963C166.622 523.405 166.664 522.674 166.592 521.77C166.519 520.857 166.35 520.004 166.084 519.212C165.827 518.414 165.485 517.713 165.058 517.109C164.631 516.504 164.122 516.031 163.531 515.69C162.958 515.359 162.483 515.259 162.107 515.39C161.73 515.521 161.459 515.863 161.293 516.416C161.135 516.964 161.093 517.705 161.168 518.639C161.241 519.552 161.411 520.41 161.677 521.213C161.951 522.01 162.306 522.714 162.741 523.324C163.177 523.933 163.682 524.404 164.255 524.735ZM180.725 538.34C179.173 537.443 177.809 536.322 176.633 534.975C175.456 533.617 174.515 532.111 173.811 530.455C173.115 528.804 172.694 527.07 172.549 525.253C172.408 523.497 172.586 522.137 173.081 521.174C173.575 520.2 174.339 519.664 175.375 519.564C176.409 519.455 177.667 519.828 179.149 520.683C180.198 521.289 181.175 522.037 182.079 522.927C182.991 523.812 183.794 524.808 184.488 525.916C185.191 527.018 185.757 528.207 186.187 529.482C186.626 530.761 186.902 532.107 187.015 533.518L187.122 534.858L174.276 527.441L174.026 524.32L184.636 530.445L182.499 529.908C182.436 529.127 182.282 528.403 182.035 527.738C181.787 527.063 181.453 526.458 181.032 525.924C180.61 525.391 180.104 524.953 179.513 524.612C178.923 524.271 178.436 524.135 178.055 524.206C177.674 524.276 177.399 524.524 177.231 524.95C177.063 525.366 177.008 525.944 177.067 526.685L177.246 528.924C177.31 529.716 177.484 530.47 177.768 531.186C178.061 531.907 178.441 532.552 178.907 533.122C179.381 533.686 179.909 534.136 180.492 534.472C180.897 534.706 181.262 534.854 181.587 534.916C181.912 534.977 182.183 534.95 182.401 534.834C182.618 534.707 182.773 534.497 182.867 534.203L187.191 536.83C187.104 537.844 186.794 538.59 186.26 539.066C185.726 539.542 184.992 539.728 184.058 539.625C183.124 539.512 182.013 539.083 180.725 538.34ZM189.312 542.992L187.95 525.968L192.514 528.603L192.764 531.725L192.923 531.816C193.096 530.832 193.466 530.247 194.031 530.06C194.605 529.868 195.293 530.004 196.096 530.468C196.316 530.595 196.542 530.74 196.774 530.903C197.015 531.071 197.235 531.246 197.434 531.429L197.81 536.119C197.573 535.896 197.272 535.659 196.907 535.41C196.542 535.15 196.218 534.939 195.936 534.776C195.38 534.455 194.889 534.307 194.462 534.332C194.043 534.361 193.727 534.556 193.511 534.916C193.305 535.281 193.229 535.798 193.282 536.468L194.022 545.711L189.312 542.992ZM199.975 549.149L198.613 532.124L203.071 534.698L203.322 537.835L203.494 537.934C203.72 537.077 204.175 536.56 204.859 536.384C205.552 536.213 206.401 536.418 207.407 536.998C208.439 537.594 209.345 538.408 210.126 539.439C210.907 540.471 211.43 541.548 211.697 542.67L211.855 542.762C212.057 541.92 212.535 541.426 213.289 541.28C214.042 541.124 214.965 541.362 216.059 541.993C217.452 542.798 218.627 543.965 219.582 545.494C220.537 547.024 221.086 548.687 221.23 550.484L222.148 561.95L217.438 559.231L216.62 549.013C216.553 548.171 216.312 547.416 215.897 546.751C215.482 546.085 214.975 545.579 214.375 545.233C213.731 544.861 213.243 544.812 212.912 545.086C212.58 545.349 212.446 545.886 212.511 546.699L213.323 556.855L208.799 554.243L207.977 543.965C207.914 543.183 207.679 542.457 207.272 541.786C206.866 541.115 206.358 540.604 205.749 540.253C205.335 540.014 204.978 539.919 204.679 539.969C204.388 540.014 204.171 540.189 204.027 540.493C203.883 540.797 203.834 541.234 203.879 541.802L204.685 551.868L199.975 549.149ZM228.575 565.951C227.631 565.406 226.774 564.737 226.004 563.944C225.242 563.146 224.624 562.257 224.15 561.276C223.677 560.296 223.395 559.242 223.304 558.115C223.229 557.171 223.306 556.456 223.537 555.969C223.776 555.487 224.13 555.189 224.601 555.073C225.08 554.962 225.641 554.991 226.286 555.16C226.929 555.318 227.624 555.584 228.368 555.956C229.199 556.348 229.866 556.646 230.371 556.85C230.875 557.054 231.234 557.126 231.448 557.065C231.67 557.01 231.768 556.81 231.74 556.464L231.734 556.388C231.69 555.83 231.487 555.297 231.127 554.789C230.766 554.28 230.295 553.858 229.713 553.522C229.087 553.161 228.597 553.028 228.243 553.123C227.897 553.224 227.693 553.513 227.631 553.99L223.291 551.325C223.332 550.361 223.584 549.625 224.048 549.119C224.521 548.607 225.206 548.388 226.103 548.46C227.009 548.538 228.128 548.962 229.46 549.731C230.395 550.27 231.27 550.896 232.084 551.608C232.898 552.32 233.62 553.091 234.25 553.919C234.88 554.748 235.386 555.606 235.768 556.495C236.15 557.384 236.377 558.275 236.449 559.168L237.375 570.741L232.943 568.182L232.751 565.792L232.646 565.731C232.419 566.162 232.119 566.458 231.745 566.62C231.371 566.781 230.919 566.811 230.389 566.708C229.868 566.601 229.263 566.348 228.575 565.951ZM229.732 563.221C230.235 563.511 230.679 563.656 231.066 563.657C231.462 563.653 231.761 563.511 231.966 563.232C232.18 562.959 232.264 562.543 232.22 561.984L232.092 560.386C231.966 560.39 231.809 560.372 231.621 560.331C231.44 560.285 231.238 560.227 231.013 560.155C230.789 560.084 230.559 559.999 230.324 559.903C230.098 559.811 229.881 559.724 229.673 559.643C229.229 559.454 228.855 559.359 228.552 559.359C228.257 559.353 228.041 559.436 227.903 559.609C227.766 559.781 227.712 560.055 227.742 560.43C227.787 560.989 227.993 561.514 228.36 562.007C228.728 562.5 229.185 562.905 229.732 563.221ZM242.624 552.131L246.796 561.381L246.955 561.472L249.993 556.385L255.338 559.471L250.293 567.394L257.351 582.275L251.874 579.112L247.618 569.756L247.459 569.664L244.333 574.759L238.922 571.635L244.115 563.827L237.253 549.03L242.624 552.131Z" fill="black"/>
<rect x="0.451753" y="0.26082" width="31.1964" height="15.2164" transform="matrix(0.866026 -0.5 2.20305e-08 1 384.656 549.503)" fill="#2C3242" stroke="#2C3242" stroke-width="1.04328"/>
<rect x="0.451753" y="0.782458" width="9.63875" height="14.5625" transform="matrix(0.866026 0.5 -2.20305e-08 1 386.814 548.061)" fill="#DCE8E6" stroke="#2C3242" stroke-width="1.04328"/>
<rect x="0.903505" width="24.9915" height="8.68822" transform="matrix(0.866026 -0.5 0.866026 0.5 386.918 549.786)" fill="#F8FAFA" stroke="#2C3242" stroke-width="1.04328"/>
<rect x="0.451753" y="0.26082" width="24.9915" height="15.2164" transform="matrix(0.866026 -0.5 2.20305e-08 1 395.285 553.39)" fill="#DEBF1A" stroke="#2C3242" stroke-width="1.04328"/>
<rect x="0.451753" y="0.782458" width="21.3139" height="14.5625" transform="matrix(0.866026 0.5 -2.20305e-08 1 366.27 538.05)" fill="#DCE8E6" stroke="#2C3242" stroke-width="1.04328"/>
<rect x="0.903505" width="30.9702" height="21.0928" transform="matrix(0.866026 -0.5 0.866026 0.5 365.742 539.411)" fill="#F8FAFA" stroke="#2C3242" stroke-width="1.04328"/>
<rect x="0.451752" y="0.260819" width="130.497" height="130.497" rx="11.9977" transform="matrix(0.866025 -0.5 2.20305e-08 1 319.279 337.656)" fill="#F8FAFA" stroke="#2C3242" stroke-width="1.04328"/>
<path d="M413.904 405.713L413.904 525.318L320.512 462.722C319.971 462.359 319.671 461.647 319.671 460.727L319.671 341.342C319.671 339.325 321.086 336.873 322.833 335.865L426.107 276.239C426.964 275.745 427.784 275.672 428.38 276.04L526.63 336.576L414.344 404.938L413.904 405.205L413.904 405.713Z" fill="url(#paint0_linear_1016_442)" stroke="#2C3242" stroke-width="1.04328"/>
<path d="M320.219 338.926L415.201 400.026" stroke="#2C3242" stroke-width="1.04328"/>
<rect x="0.451752" y="0.260819" width="134.69" height="134.69" rx="11.9977" transform="matrix(0.866025 -0.5 2.20305e-08 1 411.088 397.14)" fill="#01F027" stroke="#2C3242" stroke-width="1.04328"/>
<rect x="-0.255072" y="-0.147266" width="80.9116" height="91.734" transform="matrix(0.866025 -0.5 2.20305e-08 1 437.952 405.227)" fill="#DCE8E6" stroke="#2C3242" stroke-width="0.589064"/>
<mask id="mask1_1016_442" style="mask-type:alpha" maskUnits="userSpaceOnUse" x="437" y="365" width="71" height="132">
<rect x="0.255072" y="0.147266" width="79.7335" height="90.5559" transform="matrix(0.866025 -0.5 2.20305e-08 1 438.021 405.482)" fill="#DCE8E6" stroke="#2C3242" stroke-width="0.589064"/>
</mask>
<g mask="url(#mask1_1016_442)">
<rect x="-1.75555e-08" y="0.294532" width="17.0829" height="80.4391" transform="matrix(0.866025 0.5 -0.866025 0.5 493.642 448.242)" fill="#F8FAFA" stroke="#2C3242" stroke-width="0.589064"/>
<rect x="0.255072" y="0.441798" width="17.0829" height="92.2204" transform="matrix(0.866025 0.5 -2.20305e-08 1 493.421 356.073)" fill="#2C3242" stroke="#2C3242" stroke-width="0.589064"/>
<ellipse cx="12.5942" cy="12.5942" rx="12.5942" ry="12.5942" transform="matrix(0.866025 -0.5 2.20305e-08 1 456.395 408.941)" fill="black"/>
<path d="M448.033 459.612C448.033 454.045 449.948 447.601 453.357 441.696C456.767 435.791 461.39 430.91 466.211 428.127C471.033 425.343 475.656 424.885 479.065 426.854C482.474 428.822 484.39 433.055 484.39 438.622L466.211 449.117L448.033 459.612Z" fill="black"/>
<rect opacity="0.5" width="80.3225" height="91.145" transform="matrix(0.866025 -0.5 2.20305e-08 1 437.986 405.354)" fill="#01F027"/>
<mask id="mask2_1016_442" style="mask-type:alpha" maskUnits="userSpaceOnUse" x="437" y="365" width="71" height="132">
<rect opacity="0.5" width="80.3225" height="91.145" transform="matrix(0.866025 -0.5 2.20305e-08 1 437.986 405.354)" fill="#10BD99"/>
</mask>
<g mask="url(#mask2_1016_442)">
<path opacity="0.2" d="M410.504 506.275L507.51 342.2" stroke="#DCE8E6" stroke-width="22.9521"/>
<path opacity="0.2" d="M440.051 515.72L537.057 351.644" stroke="#DCE8E6" stroke-width="8.34622"/>
</g>
</g>
<rect x="-0.451752" y="0.260819" width="124.15" height="124.15" rx="11.9977" transform="matrix(-0.866025 -0.5 -2.20305e-08 1 256.479 337.204)" fill="#F8FAFA" stroke="#2C3242" stroke-width="1.04328"/>
<path d="M162.637 405.713L162.637 525.318L256.029 462.722C256.57 462.359 256.871 461.647 256.871 460.727L256.871 341.342C256.871 339.325 255.455 336.873 253.708 335.865L150.434 276.239C149.577 275.745 148.757 275.672 148.161 276.04L49.9108 336.576L162.197 404.938L162.637 405.205L162.637 405.713Z" fill="url(#paint1_linear_1016_442)" stroke="#2C3242" stroke-width="1.04328"/>
<path d="M256.322 338.926L161.34 400.026" stroke="#2C3242" stroke-width="1.04328"/>
<rect x="-0.451752" y="0.260819" width="134.69" height="134.69" rx="11.9977" transform="matrix(-0.866025 -0.5 -2.20305e-08 1 164.671 396.688)" fill="#55A5DF" stroke="#2C3242" stroke-width="1.04328"/>
<rect x="0.255072" y="-0.147266" width="80.9116" height="91.734" transform="matrix(-0.866025 -0.5 -2.20305e-08 1 139.031 405.482)" fill="#DCE8E6" stroke="#2C3242" stroke-width="0.589064"/>
<mask id="mask3_1016_442" style="mask-type:alpha" maskUnits="userSpaceOnUse" x="68" y="365" width="71" height="132">
<rect x="-0.255072" y="0.147266" width="79.7335" height="90.5559" transform="matrix(-0.866025 -0.5 -2.20305e-08 1 138.079 405.227)" fill="#DCE8E6" stroke="#2C3242" stroke-width="0.589064"/>
</mask>
<g mask="url(#mask3_1016_442)">
<rect x="1.75555e-08" y="0.294532" width="17.0829" height="80.4391" transform="matrix(-0.866025 0.5 0.866025 0.5 82.8992 448.242)" fill="#F8FAFA" stroke="#2C3242" stroke-width="0.589064"/>
<rect x="-0.255072" y="0.441798" width="17.0829" height="92.2204" transform="matrix(-0.866025 0.5 2.20305e-08 1 82.6783 356.328)" fill="#2C3242" stroke="#2C3242" stroke-width="0.589064"/>
<ellipse cx="12.5942" cy="12.5942" rx="12.5942" ry="12.5942" transform="matrix(-0.866025 -0.5 -2.20305e-08 1 118.059 411.028)" fill="black"/>
<path d="M126.42 461.699C126.42 456.132 124.505 449.688 121.096 443.783C117.687 437.878 113.063 432.997 108.242 430.214C103.421 427.43 98.7969 426.972 95.3878 428.941C91.9788 430.909 90.0636 435.142 90.0636 440.709L108.242 451.204L126.42 461.699Z" fill="black"/>
<rect opacity="0.5" width="80.3225" height="91.145" transform="matrix(-0.866025 -0.5 -2.20305e-08 1 138.555 405.354)" fill="#55A5DF"/>
<mask id="mask4_1016_442" style="mask-type:alpha" maskUnits="userSpaceOnUse" x="68" y="365" width="71" height="132">
<rect opacity="0.5" width="80.3225" height="91.145" transform="matrix(-0.866025 -0.5 -2.20305e-08 1 138.555 405.354)" fill="#10BD99"/>
</mask>
<g mask="url(#mask4_1016_442)">
<path opacity="0.2" d="M25.4464 492.237L189.522 395.231" stroke="#DCE8E6" stroke-width="22.9521"/>
<path opacity="0.2" d="M16.0031 462.691L180.078 365.685" stroke="#DCE8E6" stroke-width="8.34622"/>
</g>
</g>
<rect x="0.903505" width="134.69" height="134.69" rx="11.9977" transform="matrix(0.866025 -0.5 0.866025 0.5 169.404 214.202)" fill="#F8FAFA" stroke="#2C3242" stroke-width="1.04328"/>
<rect x="0.903505" width="134.69" height="134.69" rx="11.9977" transform="matrix(0.866025 -0.5 0.866025 0.5 169.404 214.202)" fill="#F8FAFA" stroke="#2C3242" stroke-width="1.04328"/>
<mask id="path-66-inside-9_1016_442" fill="white">
<path fill-rule="evenodd" clip-rule="evenodd" d="M397.92 212.699V113.771H175.693V212.966C175.307 215.485 176.784 218.082 180.124 220.01L275.988 275.358C281.976 278.815 291.685 278.815 297.673 275.358L393.537 220.01C396.995 218.014 398.456 215.301 397.92 212.699Z"/>
</mask>
<path fill-rule="evenodd" clip-rule="evenodd" d="M397.92 212.699V113.771H175.693V212.966C175.307 215.485 176.784 218.082 180.124 220.01L275.988 275.358C281.976 278.815 291.685 278.815 297.673 275.358L393.537 220.01C396.995 218.014 398.456 215.301 397.92 212.699Z" fill="url(#paint2_linear_1016_442)"/>
<path d="M397.92 212.699H396.877V212.806L396.899 212.91L397.92 212.699ZM397.92 113.771H398.964V112.728H397.92V113.771ZM175.693 113.771V112.728H174.65V113.771H175.693ZM175.693 212.966L176.724 213.124L176.736 213.045V212.966H175.693ZM180.124 220.01L179.602 220.914L179.602 220.914L180.124 220.01ZM275.988 275.358L275.467 276.261L275.467 276.261L275.988 275.358ZM297.673 275.358L297.151 274.454L297.151 274.454L297.673 275.358ZM393.537 220.01L393.016 219.107L393.016 219.107L393.537 220.01ZM398.964 212.699V113.771H396.877V212.699H398.964ZM397.92 112.728H175.693V114.815H397.92V112.728ZM174.65 113.771V212.966H176.736V113.771H174.65ZM180.645 219.107C177.518 217.301 176.427 215.061 176.724 213.124L174.662 212.808C174.186 215.909 176.05 218.863 179.602 220.914L180.645 219.107ZM276.51 274.454L180.645 219.107L179.602 220.914L275.467 276.261L276.51 274.454ZM297.151 274.454C294.353 276.07 290.62 276.907 286.83 276.907C283.041 276.907 279.308 276.07 276.51 274.454L275.467 276.261C278.657 278.103 282.772 278.994 286.83 278.994C290.889 278.994 295.004 278.103 298.194 276.261L297.151 274.454ZM393.016 219.107L297.151 274.454L298.194 276.261L394.059 220.914L393.016 219.107ZM396.899 212.91C397.31 214.907 396.253 217.238 393.016 219.107L394.059 220.914C397.738 218.79 399.603 215.695 398.942 212.489L396.899 212.91Z" fill="#2C3242" mask="url(#path-66-inside-9_1016_442)"/>
<rect x="0.903505" width="134.69" height="134.69" rx="11.9977" transform="matrix(0.866025 -0.5 0.866025 0.5 169.404 114.224)" fill="#DEBF1A" stroke="#2C3242" stroke-width="1.04328"/>
<mask id="mask5_1016_442" style="mask-type:alpha" maskUnits="userSpaceOnUse" x="213" y="69" width="147" height="85">
<rect x="0.903505" width="83.1434" height="83.1434" transform="matrix(0.866025 -0.5 0.866025 0.5 214.045 112.137)" fill="#A7B1B5" stroke="#2C3242" stroke-width="1.04328"/>
</mask>
<g mask="url(#mask5_1016_442)">
<rect width="84.1867" height="84.1867" transform="matrix(0.866025 -0.5 0.866025 0.5 213.924 111.686)" fill="#A7B1B5"/>
<rect x="0.451752" y="0.782458" width="83.1428" height="16.2747" transform="matrix(0.866025 0.5 -2.20305e-08 1 286.893 69.3649)" fill="#2C3242" stroke="#2C3242" stroke-width="1.04328"/>
<rect x="0.451752" y="0.260819" width="83.1428" height="16.2747" transform="matrix(0.866025 -0.5 2.20305e-08 1 215.949 111.549)" fill="#BBBEC3" stroke="#2C3242" stroke-width="1.04328"/>
<circle cx="12.5942" cy="12.5942" r="12.5942" transform="matrix(0.866025 0.5 -0.866025 0.5 301.779 99.6533)" fill="black"/>
<path d="M253.716 117.747C258.538 114.964 265.076 113.4 271.895 113.4C278.713 113.4 285.252 114.964 290.073 117.747C294.894 120.531 297.602 124.306 297.602 128.242C297.602 132.179 294.894 135.954 290.073 138.737L271.895 128.242L253.716 117.747Z" fill="black"/>
<rect opacity="0.5" width="84.1867" height="84.1867" transform="matrix(0.866025 -0.5 0.866025 0.5 213.924 111.686)" fill="#DEBF1A"/>
<mask id="mask6_1016_442" style="mask-type:alpha" maskUnits="userSpaceOnUse" x="213" y="69" width="147" height="85">
<rect opacity="0.5" width="84.1867" height="84.1867" transform="matrix(0.866025 -0.5 0.866025 0.5 213.924 111.687)" fill="#10BD99"/>
</mask>
<g mask="url(#mask6_1016_442)">
<path opacity="0.2" d="M175.885 116.773L366.296 108.15" stroke="#DCE8E6" stroke-width="22.9521"/>
<path opacity="0.2" d="M181.416 86.25L371.828 77.6275" stroke="#DCE8E6" stroke-width="8.34622"/>
</g>
</g>
<ellipse cx="17.1172" cy="17.1172" rx="17.1172" ry="17.1172" transform="matrix(0.866025 0.5 -2.20305e-08 1 44.5664 719.44)" fill="#2C3242"/>
<circle cx="16.0739" cy="16.0739" r="15.7794" transform="matrix(0.866025 0.5 -2.20305e-08 1 42.4785 721.526)" fill="#DEBF1A" stroke="#2C3242" stroke-width="0.589064"/>
<ellipse cx="17.1172" cy="17.1172" rx="17.1172" ry="17.1172" transform="matrix(0.848048 0.529919 -0.0348995 0.999391 87.3828 752.248)" fill="#2C3242"/>
<path d="M111.677 787.204C111.373 795.913 105.135 799.23 97.7444 794.612C90.3539 789.993 84.6093 779.189 84.9134 770.48C85.2176 761.771 91.4553 758.454 98.8458 763.072C106.236 767.69 111.981 778.494 111.677 787.204Z" fill="#DEBF1A" stroke="#2C3242" stroke-width="0.589064"/>
<circle cx="19.0273" cy="19.0273" r="18.7328" transform="matrix(0.866025 -0.5 0.866025 0.5 406.191 705.887)" fill="#DEBF1A" stroke="#2C3242" stroke-width="0.589064"/>
<path d="M391.014 600.439C391.014 610.555 383.911 622.857 375.15 627.916C366.388 632.974 359.286 628.874 359.286 618.757C359.286 608.64 366.388 596.338 375.15 591.279C383.911 586.221 391.014 590.322 391.014 600.439Z" fill="#DEBF1A" stroke="#2C3242" stroke-width="1.04328"/>
<path fill-rule="evenodd" clip-rule="evenodd" d="M427.108 657.073C427.108 654.768 425.464 652.01 423.438 650.913L376.176 625.326L376.176 591.941L452.796 633.422C454.823 634.519 456.466 637.277 456.466 639.582L456.466 713.834L427.108 697.94L427.108 657.073Z" fill="#2C3242"/>
<path fill-rule="evenodd" clip-rule="evenodd" d="M428.025 656.527C428.025 654.222 426.382 651.464 424.355 650.367L376.176 624.284L376.176 592.985L451.879 633.969C453.906 635.067 455.549 637.825 455.549 640.129L455.549 713.338L428.025 698.437L428.025 656.527Z" fill="#DEBF1A"/>
<path d="M441.788 705.887L441.788 644.155L408.982 626.395" stroke="url(#paint3_linear_1016_442)" stroke-width="10.4328"/>
<circle cx="19.0273" cy="19.0273" r="18.7328" transform="matrix(-0.866025 -0.5 -0.866025 0.5 174.359 705.887)" fill="#DEBF1A" stroke="#2C3242" stroke-width="0.589064"/>
<path d="M189.537 600.439C189.537 610.555 196.64 622.857 205.401 627.916C214.162 632.974 221.265 628.874 221.265 618.757C221.265 608.64 214.162 596.338 205.401 591.279C196.64 586.221 189.537 590.322 189.537 600.439Z" fill="#DEBF1A" stroke="#2C3242" stroke-width="1.04328"/>
<path fill-rule="evenodd" clip-rule="evenodd" d="M153.443 657.074C153.443 654.769 155.086 652.011 157.113 650.914L204.375 625.327L204.375 591.942L127.754 633.423C125.728 634.52 124.085 637.278 124.085 639.583L124.085 713.835L153.443 697.941L153.443 657.074Z" fill="#2C3242"/>
<path fill-rule="evenodd" clip-rule="evenodd" d="M152.526 656.527C152.526 654.222 154.169 651.464 156.196 650.367L204.375 624.284L204.375 592.985L128.672 633.969C126.645 635.067 125.002 637.825 125.002 640.129L125.002 713.338L152.526 698.437L152.526 656.527Z" fill="#DEBF1A"/>
<path d="M138.763 705.887L138.763 644.155L171.568 626.395" stroke="url(#paint4_linear_1016_442)" stroke-width="10.4328"/>
<defs>
<linearGradient id="paint0_linear_1016_442" x1="319.219" y1="349.307" x2="462.49" y2="437.599" gradientUnits="userSpaceOnUse">
<stop stop-color="#FFEEE1"/>
<stop offset="1" stop-color="#FACCA1" stop-opacity="0"/>
</linearGradient>
<linearGradient id="paint1_linear_1016_442" x1="257.322" y1="349.307" x2="114.051" y2="437.599" gradientUnits="userSpaceOnUse">
<stop stop-color="#55A5DF"/>
<stop offset="1" stop-color="#55A5DF" stop-opacity="0"/>
</linearGradient>
<linearGradient id="paint2_linear_1016_442" x1="299.295" y1="277.951" x2="297.561" y2="133.921" gradientUnits="userSpaceOnUse">
<stop stop-color="#E1FFF9"/>
<stop offset="1" stop-color="#A1FAE7" stop-opacity="0"/>
</linearGradient>
<linearGradient id="paint3_linear_1016_442" x1="408.982" y1="626.394" x2="406.115" y2="682.987" gradientUnits="userSpaceOnUse">
<stop stop-color="#DAFBF4" stop-opacity="0"/>
<stop offset="0.3116" stop-color="#DAFBF4" stop-opacity="0.385441"/>
<stop offset="1" stop-color="#DAFBF4" stop-opacity="0"/>
</linearGradient>
<linearGradient id="paint4_linear_1016_442" x1="171.568" y1="626.394" x2="174.435" y2="682.987" gradientUnits="userSpaceOnUse">
<stop stop-color="#DAFBF4" stop-opacity="0"/>
<stop offset="0.3116" stop-color="#DAFBF4" stop-opacity="0.385441"/>
<stop offset="1" stop-color="#DAFBF4" stop-opacity="0"/>
</linearGradient>
</defs>
</svg>
